<?xml version="1.0" standalone="no"?><!DOCTYPE svg PUBLIC "-//W3C//DTD SVG 1.1//EN" "http://www.w3.org/Graphics/SVG/1.1/DTD/svg11.dtd"><svg width="171.25" height="128" viewBox="0 0 171.25 128" version="1.1" xmlns="http://www.w3.org/2000/svg" xmlns:xlink="http://www.w3.org/1999/xlink"><defs><style type="text/css"><![CDATA[
@font-face { font-family: ifont; src: url("//at.alicdn.com/t/font_1442373896_4754455.eot?#iefix") format("embedded-opentype"), url("//at.alicdn.com/t/font_1442373896_4754455.woff") format("woff"), url("//at.alicdn.com/t/font_1442373896_4754455.ttf") format("truetype"), url("//at.alicdn.com/t/font_1442373896_4754455.svg#ifont") format("svg"); }

]]></style></defs><g class="transform-group"><g transform="scale(0.125, 0.125)"><path d="M684.022251 289.225104c-142.17252 0-257.342022 115.169501-257.342022 257.342022 0 142.17252 115.169501 257.342022 257.342022 257.342022s257.342022-115.169501 257.342022-257.342022C941.364272 404.394605 826.194771 289.225104 684.022251 289.225104L684.022251 289.225104zM684.022251 289.225104M1250.272299 134.527087 942.340285 134.527087 942.340285 75.478317c0-41.64321-33.835108-75.478317-75.478317-75.478317L501.182534 0c-41.64321 0-75.478317 33.835108-75.478317 75.478317L425.704216 134.527087 117.772202 134.527087C76.128992 134.527087 42.293885 161.042099 42.293885 193.738526l0 770.887383c0 32.696426 33.835108 59.374107 75.478317 59.374107l1132.500097 0c41.64321 0 75.478317-26.515012 75.478317-59.374107L1325.750617 193.738526C1325.750617 161.042099 1291.915509 134.527087 1250.272299 134.527087L1250.272299 134.527087zM684.022251 896.793025c-193.413188 0-350.225899-156.812711-350.225899-350.225899S490.609063 196.341226 684.022251 196.341226s350.225899 156.812711 350.225899 350.225899S877.435439 896.793025 684.022251 896.793025L684.022251 896.793025zM684.022251 896.793025" fill="#bfbfbf"></path></g></g></svg>